<svg width="189" height="58" viewBox="0 0 189 58" fill="none" xmlns="http://www.w3.org/2000/svg">
<g id="Vector">
<path d="M60.05 14.5H66.95L72.3 35.45H72.4V14.5H77.3V49.5H71.65L65.05 23.95H64.95V49.5H60.05V14.5Z" fill="white"/>
<path d="M89.3879 50C86.7212 50 84.6879 49.25 83.2879 47.75C81.8879 46.2167 81.1879 44.0333 81.1879 41.2V14.5H86.6879V41.6C86.6879 42.8 86.9212 43.6667 87.3879 44.2C87.8879 44.7333 88.5879 45 89.4879 45C90.3879 45 91.0712 44.7333 91.5379 44.2C92.0379 43.6667 92.2879 42.8 92.2879 41.6V14.5H97.5879V41.2C97.5879 44.0333 96.8879 46.2167 95.4879 47.75C94.0879 49.25 92.0546 50 89.3879 50Z" fill="white"/>
<path d="M100.055 14.5H105.605L109.205 41.65H109.305L112.905 14.5H117.955L112.655 49.5H105.355L100.055 14.5Z" fill="white"/>
<path d="M123.431 14.5H130.881L136.581 49.5H131.081L130.081 42.55V42.65H123.831L122.831 49.5H117.731L123.431 14.5ZM129.431 37.9L126.981 20.6H126.881L124.481 37.9H129.431Z" fill="white"/>
<path d="M147.152 50C144.485 50 142.452 49.25 141.052 47.75C139.652 46.2167 138.952 44.0333 138.952 41.2V14.5H144.452V41.6C144.452 42.8 144.685 43.6667 145.152 44.2C145.652 44.7333 146.352 45 147.252 45C148.152 45 148.835 44.7333 149.302 44.2C149.802 43.6667 150.052 42.8 150.052 41.6V14.5H155.352V41.2C155.352 44.0333 154.652 46.2167 153.252 47.75C151.852 49.25 149.818 50 147.152 50Z" fill="white"/>
<path d="M159.269 14.5H164.769V44.5H173.819V49.5H159.269V14.5Z" fill="white"/>
<path d="M176.85 19.5H171.1V14.5H188.1V19.5H182.35V49.5H176.85V19.5Z" fill="white"/>
<path d="M0 0C9.93042 17.2 4.13768 45.8333 0 58H16C16.6667 39.5 14.4 2 0 0Z" fill="#0F172A"/>
<path d="M34 8.5C42.6336 23.031 37.5973 47.2213 34 57.5H47.9106C48.4902 41.8707 46.5195 10.1897 34 8.5Z" fill="#F1F5F9"/>
<path d="M23 26.5C23 24.8431 24.3431 23.5 26 23.5C27.6569 23.5 29 24.8431 29 26.5V36.5C29 38.1569 27.6569 39.5 26 39.5C24.3431 39.5 23 38.1569 23 36.5V26.5Z" fill="#FFDD38"/>
<path d="M33 22.5C33 26.366 29.866 29.5 26 29.5C22.134 29.5 19 26.366 19 22.5C19 18.634 22.134 15.5 26 15.5C29.866 15.5 33 18.634 33 22.5Z" fill="#FFDD38"/>
</g>
</svg>
